<svg width="186" height="87" viewBox="0 0 186 87" fill="none" xmlns="http://www.w3.org/2000/svg">
<g clip-path="url(#clip0_109_356)">
<path d="M133.116 17.7227H125.239V33.1932C125.239 38.2358 130.621 42.5441 137.274 42.5441C143.927 42.5441 149.749 38.1868 149.749 33.1932V17.7227H141.873V31.6755C141.873 33.9765 139.916 35.8369 137.519 35.8369C135.073 35.8369 133.116 33.9765 133.116 31.6266V17.7227Z" fill="#E21B4D"/>
<path d="M8.16991 9.20397V41.32H0V2.59473H14.7254C21.1341 2.59473 26.3688 7.78421 26.3688 14.0997C26.3688 19.485 22.6018 23.9891 17.5139 25.1641L28.8638 41.32H19.1284L10.9584 28.6401V19.3871H12.8664C15.8995 19.3871 18.3456 17.1351 18.3456 14.3445C18.3456 11.5539 16.0463 9.20397 13.0132 9.20397H8.16991Z" fill="#E21B4D"/>
<path d="M83.362 41.3201V0.734375H75.6324V19.8767C73.5776 17.8695 70.9848 16.7434 68.0006 16.7434C61.6408 16.7434 56.4551 22.3735 56.4551 29.3744C56.4551 36.3264 61.6408 42.0055 68.0006 42.0055C71.0337 42.0055 73.8712 40.8305 75.6324 38.6764V41.3201H83.362ZM70.2021 35.3962C67.0711 35.3962 64.5271 32.6056 64.5271 29.1786C64.5271 25.7516 67.0711 22.961 70.2021 22.961C73.333 22.961 75.877 25.7516 75.877 29.1786C75.828 32.6056 73.2841 35.3962 70.2021 35.3962Z" fill="#E21B4D"/>
<path d="M115.847 20.2683C117.95 18.3101 119.271 15.6664 119.271 12.7779C119.271 10.1342 118.244 7.73525 116.483 5.82591C114.624 3.81866 111.395 2.59473 106.992 2.59473H93.832V41.32H110.857C117.363 41.2221 122.647 36.2774 122.647 30.2067C122.598 25.8005 121.032 22.6673 115.847 20.2683ZM109.291 34.6129H101.904V9.54668H107.09C109.34 9.54668 111.248 11.2602 111.248 13.5612C111.248 15.8622 109.34 17.7226 107.09 17.7226H104.35V24.7235H109.389C112.129 24.7235 114.183 26.9755 114.183 29.7171C114.086 32.4587 112.275 34.466 109.291 34.6129Z" fill="#E21B4D"/>
<path d="M35.7127 26.486C35.7127 23.8912 37.8163 21.7861 40.4092 21.7861C43.002 21.7861 45.1056 23.8912 45.1056 26.486H35.7127ZM52.7374 30.8922C52.7863 30.3536 52.8353 29.8151 52.8353 29.2766C52.9331 20.9048 47.4539 16.3518 40.4092 16.3518C33.3645 16.3518 27.6406 22.1288 27.6406 29.2766C27.6406 36.4243 33.3645 42.2013 40.4092 42.2013C45.7905 42.2013 49.9978 39.7534 52.1504 35.9348L45.8884 33.0463C45.1056 34.7598 43.2466 35.9837 41.0451 35.9837C38.1588 35.9837 35.7616 33.7806 35.7616 30.8922C35.9573 30.8922 52.7374 30.8922 52.7374 30.8922Z" fill="#E21B4D"/>
<path d="M161.099 0.734375H153.369V41.32H161.099V0.734375Z" fill="#E21B4D"/>
<path d="M174.259 0.734375H166.529V41.32H174.259V0.734375Z" fill="#E21B4D"/>
<path d="M69.3711 68.1487C69.3711 57.6718 77.8345 49.2021 88.3038 49.2021C98.773 49.2021 107.236 57.6718 107.236 68.1487C107.236 78.6255 98.773 87.0952 88.3038 87.0952C77.8345 87.0952 69.3711 78.5766 69.3711 68.1487Z" fill="#FFD300"/>
<path fill-rule="evenodd" clip-rule="evenodd" d="M73.0892 56.8885C73.3827 57.0354 73.6763 57.1823 74.0187 57.3781C75.4375 58.3573 76.367 59.1895 78.5195 61.001C79.1555 61.6374 79.8893 62.6655 80.4275 63.302C81.6016 64.7707 82.4332 65.7988 82.58 67.0227C82.9225 69.4706 83.2649 70.8414 84.1944 73.3382C84.2923 73.583 84.6836 73.9257 84.9283 74.2195C85.5153 74.9538 85.7599 76.1288 86.8362 76.7652C87.4233 77.1079 87.5211 77.1569 87.7168 77.3038C88.0103 77.5486 87.5211 78.4298 86.0045 78.234C86.7873 78.6256 86.6894 79.5069 85.5642 79.5558C83.3628 79.6537 81.993 78.3808 81.6994 78.0381C81.5527 77.8913 81.1124 78.4787 80.3296 78.7725C79.5469 79.1641 78.4706 78.7725 77.6389 78.9194C76.8562 79.0662 75.8288 79.5558 74.9972 79.6048C73.5295 79.6537 73.3338 78.6256 73.3338 77.7444C73.3338 77.5486 73.3338 77.4017 73.3338 77.3527C73.1871 77.8913 72.6489 78.8214 72.6489 78.8214C72.4532 79.2621 72.1597 79.8006 71.6216 79.9964L70.0561 80.1923C68.833 80.7308 67.61 81.1224 66.338 81.5631C65.6042 81.7099 64.7725 81.5631 64.2344 81.1224C63.7941 80.7797 63.5495 80.3391 63.3049 79.8985C63.0603 79.8006 62.7178 79.8985 62.4243 79.8006C62.1797 79.7516 62.0329 79.5558 61.8862 79.4089L60.8099 77.5975C60.712 77.3527 60.712 77.01 60.8099 76.7652C61.0056 76.3736 61.4459 76.1778 61.8862 76.1778C62.6689 76.1288 63.5495 75.884 64.3322 76.1778C64.6747 75.7861 65.2128 75.835 65.7021 75.7371C65.5064 75.4434 65.2128 75.2965 64.9682 75.0517C63.5495 75.3944 61.984 75.1496 60.6142 74.9049C59.3422 74.6111 58.266 75.3455 56.994 75.1496L56.6026 75.9819C56.0156 76.6184 55.9666 77.6954 55.0861 78.136C54.4501 78.2829 53.9609 78.7235 53.4227 79.0173C52.4443 79.5558 51.1234 79.311 50.0471 79.1152C49.6068 79.0662 49.3133 79.1152 48.9219 79.2621C48.5795 79.5068 48.1881 79.8985 47.7967 80.1923C47.1608 80.437 46.6226 80.9756 45.9377 81.0245C45.5463 81.0245 45.155 80.7797 44.7636 80.8777C44.2744 81.4162 44.0298 82.2974 43.247 82.5422C42.4643 82.787 41.4858 82.5912 40.7031 82.3953C40.4585 82.4933 40.3117 82.6891 40.0182 82.6401C39.4801 82.4933 38.9419 82.3464 38.4527 82.0526C38.257 81.8568 38.2081 81.612 38.1592 81.4162C38.1592 81.0735 38.4527 80.7797 38.5995 80.486C38.6484 80.1433 38.6484 79.6537 38.7952 79.311C39.0398 78.7725 39.5779 78.4298 40.116 78.185C40.165 77.7933 40.4096 77.4506 40.752 77.2548C41.388 76.9121 42.0729 76.1288 42.9046 76.5694L43.7852 77.3038C44.5679 76.9611 44.3722 76.1778 44.7636 75.5413C44.9593 75.1007 45.2039 74.6111 45.6931 74.6111C46.0356 74.5622 46.4269 74.6601 46.7694 74.6111C47.2586 74.4642 47.7967 74.2684 48.1392 73.8768L48.0903 73.583C47.6011 72.6528 47.4543 71.5268 47.4054 70.4008C46.5248 70.4987 45.5953 70.6456 44.6658 70.4497C43.296 70.2539 41.9751 69.1768 41.4369 67.806C40.8499 66.4842 41.0945 64.6238 42.024 63.4978C42.7578 62.6166 43.5895 61.8332 44.4701 61.1478C44.1765 61.0499 43.8341 61.0989 43.5406 61.001C42.2686 60.8051 40.9966 59.6791 40.7031 58.4062C40.5074 57.5739 40.7031 56.7906 41.0945 56.1052C41.2412 55.9583 41.388 55.8115 41.6326 55.9094C42.2686 56.1542 42.4643 56.4969 43.0513 56.7906L43.3938 56.9865C45.0082 57.525 47.1608 57.525 47.7967 59.5322C48.1881 61.0989 47.2097 62.2739 46.0845 63.1551C45.2039 63.7915 44.3233 64.5749 43.883 65.505C43.6873 66.1904 43.7852 66.8758 44.3722 67.3654C44.9593 67.9529 45.9866 67.9529 46.7205 67.6592C48.0903 67.0717 49.3622 66.1904 50.5853 65.2603C51.7594 64.379 53.1781 64.0363 54.6947 63.9874C55.3796 63.8405 55.9666 63.5467 56.5048 63.1061C57.4343 62.2249 58.4127 61.4905 59.5869 61.1968C60.125 61.0989 60.6631 61.0499 61.2013 61.001C61.6416 60.8051 61.9351 60.2666 62.2775 60.0218C63.892 58.602 66.0445 58.651 67.7568 57.525C68.7352 56.7906 69.8115 56.301 71.0834 56.35C71.6705 56.399 72.2086 56.4969 72.6978 56.6927L73.0892 56.8885ZM74.7036 73.534C73.6274 73.583 72.9425 73.8278 72.2086 73.9257C72.2576 74.6111 72.6489 75.1986 73.1871 75.933C73.4806 74.8069 74.4101 74.3663 74.7036 73.534Z" fill="#FFD300"/>
<path fill-rule="evenodd" clip-rule="evenodd" d="M102.246 73.7789C102.735 74.5132 103.029 75.2476 103.469 76.0309C103.909 75.1986 104.301 74.4153 104.692 73.9257C104.643 73.8768 103.371 74.0237 102.246 73.7789ZM103.273 77.4017C103.224 77.5486 103.126 77.5976 102.931 77.5976C103.078 78.283 102.588 79.5558 101.365 79.6048C100.534 79.6538 99.1638 78.8215 98.381 78.7725C97.5494 78.7236 96.0328 79.36 95.1522 78.0382C93.9781 79.4579 92.6083 79.8496 91.4342 79.8006C90.7493 79.8006 90.0154 79.409 91.0428 78.5277C88.7924 79.2621 88.7924 77.7444 89.1838 77.4507C89.4284 77.2548 89.7219 77.108 90.5536 76.2757C93.6846 72.9956 92.5104 67.3165 95.935 63.5468C97.2558 62.0781 98.3321 61.2458 101.023 59.3364C101.952 58.7 102.882 57.7698 103.762 57.1334L103.811 57.2313V57.1823C104.349 56.7907 104.839 56.399 105.426 56.2521C106.649 56.1053 107.774 56.4969 108.703 57.1334C109.193 57.4761 109.584 57.8677 109.975 58.3573C110.269 58.651 110.709 58.651 111.101 58.7979C112.226 58.9937 113.204 59.4344 114.134 60.0218C114.77 60.4135 115.308 61.0989 116.091 61.1968C117.02 61.3437 117.852 61.6374 118.684 62.127C119.662 62.7635 120.543 63.5468 121.717 63.7426C124.065 63.9874 126.022 65.3092 127.881 66.6311C128.957 67.2675 130.229 68.0019 131.55 67.5613C131.941 67.4144 132.235 67.0717 132.333 66.729C132.43 65.8478 131.892 65.1624 131.354 64.5259C130.229 63.2041 128.272 62.0781 128.517 60.1687C128.859 58.749 130.425 57.9167 131.648 57.525C132.333 57.2802 133.164 57.3782 133.751 56.7907C134.045 56.5948 134.192 55.9094 134.681 56.1542C135.072 56.399 135.121 56.8886 135.17 57.3292C135.366 58.7 135.072 60.0708 133.8 60.8541C133.213 61.2458 132.577 61.3927 131.892 61.5395C132.92 62.3718 133.947 63.3999 134.534 64.5749C134.877 65.2603 135.072 65.8478 135.121 66.6311C135.072 68.0998 134.192 69.3727 132.92 70.1071C132.186 70.4987 131.354 70.6456 130.474 70.6456C130.131 70.6456 129.838 70.5477 129.544 70.5477C129.691 71.2331 129.691 72.1633 129.544 72.9466C129.495 73.3383 129.251 73.7789 129.251 74.2684C129.446 74.5132 129.74 74.5132 129.984 74.5132C130.62 74.5132 131.403 74.4643 131.746 75.1497C132.039 75.7861 132.186 76.5205 132.43 77.1569C132.528 77.2549 132.577 77.4996 132.724 77.4507C133.164 77.059 133.605 76.5205 134.241 76.6674C134.828 77.059 135.415 77.4996 136.002 77.9403C136.149 78.0871 136.197 78.283 136.246 78.5277C136.736 78.7236 137.372 79.0663 137.518 79.6538C137.616 80.0454 137.567 80.4371 137.665 80.7798C137.812 81.1714 138.203 81.661 137.91 82.1506L137.714 82.2975L135.855 82.885C135.708 82.885 135.561 82.787 135.415 82.6402C134.436 82.5912 133.262 82.8849 132.479 82.1995C132.137 81.9058 131.892 81.5631 131.648 81.1714C131.061 81.4652 130.229 81.661 129.642 81.2694C128.419 80.3392 127.196 79.409 125.533 79.4579C124.799 79.6048 123.918 79.8006 123.184 79.5069C122.499 79.0173 121.717 78.7725 121.179 78.0382C120.396 77.2059 120.396 76.2267 120.102 75.1986C119.026 75.4434 117.852 75.2966 116.776 75.2476C115.895 75.1986 115.063 75.3455 114.232 75.5413C113.204 75.7372 112.079 75.8351 111.003 75.7861L110.465 76.1778C110.709 76.2267 110.954 76.2267 111.15 76.4226L111.345 76.6184C112.226 76.7163 113.253 76.5694 114.085 76.7653C114.281 76.8142 114.476 77.0101 114.574 77.2059C114.672 77.4507 114.672 77.7444 114.525 77.9403C114.085 78.5277 113.84 79.2131 113.253 79.7027C113.106 79.8985 112.666 79.6538 112.617 79.9965C112.422 80.8777 111.59 81.6121 110.758 81.8079C110.416 81.8568 110.024 81.8079 109.731 81.71C108.703 81.3673 107.676 81.0735 106.649 80.7798C106.306 80.6819 106.013 80.3392 105.719 80.1433C105.279 80.1433 104.643 80.2902 104.349 79.8985C104.203 79.8006 104.056 79.4579 104.007 79.3111C103.665 78.8704 103.42 78.0871 103.273 77.4017Z" fill="#FFD300"/>
<path fill-rule="evenodd" clip-rule="evenodd" d="M72.5999 63.0571C72.8934 63.7915 72.8934 64.7706 72.6978 65.554C72.6488 65.6029 72.5999 65.6029 72.551 65.554C72.4042 64.8686 72.2575 64.1832 72.0128 63.4977C71.8661 63.1061 71.3769 62.7634 71.5726 62.3228C71.6704 62.2249 71.8661 62.2249 72.0128 62.2738C72.2575 62.5186 72.4042 62.7634 72.5999 63.0571ZM80.4274 69.9112C80.9655 70.5476 81.3569 71.233 81.1612 72.0653C81.0633 72.2122 81.1123 72.5059 80.8677 72.5549C80.7698 72.6038 80.672 72.5059 80.672 72.408C80.623 71.9674 80.6231 71.4778 80.3784 71.1351C80.0849 70.8414 79.7425 70.2539 79.2532 70.2539C78.9108 70.3518 78.6662 70.7434 78.4705 70.9882C78.4705 71.0372 78.4216 71.0372 78.3727 70.9882C78.177 70.4987 78.5683 70.107 78.7151 69.7153C79.0086 69.4216 78.9597 68.5893 79.5957 68.8341C80.036 69.1279 80.1338 69.6174 80.4274 69.9112ZM79.4 75.7371C79.4489 76.0308 79.4489 76.4715 79.1554 76.6673C78.8619 76.7652 78.4705 76.8142 78.128 76.7652C78.0302 76.7162 77.9324 76.6673 77.9813 76.5694C78.128 76.1288 78.5683 75.6392 79.0576 75.5413C79.1554 75.5413 79.3511 75.5413 79.4 75.7371ZM43.6872 57.8676C44.8613 58.1614 46.1333 58.1614 47.0139 59.0916C47.5031 59.6791 47.552 60.7072 47.1607 61.2947C46.4758 62.4696 45.106 63.0571 44.2743 64.0852C43.4426 64.7706 43.1491 65.8477 43.3937 66.9248C43.6872 67.855 44.6167 68.4914 45.5462 68.5404C47.0139 68.5893 48.0902 67.855 49.2643 67.1696C50.4384 66.3373 51.5147 65.2602 52.8356 64.9175C53.7162 64.6238 54.6946 64.7706 55.5752 64.4279C56.5047 64.2321 57.2385 63.4488 57.9723 62.7634C58.804 62.078 59.7824 61.6863 60.8587 61.7353C61.8372 61.8822 62.3753 61.0009 63.0602 60.4134C64.1854 59.3853 65.653 59.2874 66.9739 58.6999C67.9034 58.4062 68.6373 57.7208 69.5178 57.2802C70.3495 56.9375 71.4747 56.8395 72.3064 57.1822C72.8445 57.427 73.4316 57.6718 73.9208 58.0635L77.8834 61.3926C77.9324 61.5395 78.0791 61.6374 78.177 61.6863C79.3022 63.0571 80.4763 64.379 81.4058 65.8967C81.6993 66.4352 81.8461 66.9737 81.9929 67.5612C82.1885 69.8133 82.7756 71.7716 83.5094 73.7298C83.7051 74.0236 84.0965 74.2684 84.2922 74.5621C84.9282 75.4434 85.3195 76.5694 86.3469 77.1569L86.9339 77.4506C86.9829 77.4996 86.9829 77.5975 86.9339 77.6464L86.8361 77.7444C85.6131 77.9402 84.6835 77.2058 84.0476 76.3246C83.6562 75.5413 83.1181 74.709 82.2375 74.3663C82.1885 74.3663 82.1396 74.4152 82.1396 74.4152C82.2375 74.709 82.531 74.9048 82.6288 75.1496C82.9713 75.6881 83.2648 76.2756 83.4116 76.8631C83.6073 77.4996 84.2922 77.9402 84.8303 78.2829L85.6131 78.6745C85.7109 78.7235 85.7598 78.8704 85.662 78.9683L85.5641 79.0172C84.2432 79.0662 83.0691 78.6256 82.1396 77.6464C81.9439 77.4017 81.6504 77.2058 81.308 77.2058C80.7209 77.7443 80.1338 78.2339 79.3511 78.2829C78.5194 78.136 77.6388 78.136 76.905 78.4298C76.2201 78.6745 75.5352 78.9683 74.8014 78.9683C74.4589 78.9683 74.0676 78.8214 73.9208 78.4787C73.9208 78.0381 73.6273 77.5485 73.8719 77.1079L74.3611 76.3735C74.3611 76.2756 74.3122 76.1777 74.2143 76.1777C74.0186 76.1288 73.6762 76.4715 73.5783 76.1288C73.6273 75.3944 74.3611 74.9048 74.8503 74.4152C74.9481 73.8278 75.1928 73.2892 75.6331 72.7997C75.6331 72.7507 75.5841 72.6528 75.4863 72.6528C74.8503 72.7507 74.2143 72.8976 73.5294 72.8976C72.9913 73.1913 72.3064 73.3871 71.6704 73.1913C71.5236 73.0934 71.5726 72.9465 71.6215 72.8486C72.3064 71.9184 72.551 70.7434 72.3553 69.6174C72.3064 69.5685 72.3064 69.4705 72.2085 69.4705C72.1107 69.4705 72.1107 69.5685 72.0618 69.6174C71.915 70.6945 71.5726 71.5268 70.9855 72.457C70.5452 72.8976 69.8603 72.8976 69.2732 73.0444C69.1265 73.0934 68.9797 73.2403 68.9797 73.3871C68.9797 73.7788 69.2243 74.0236 69.3711 74.3663L70.643 76.7162C70.692 77.3527 70.3984 77.9891 70.2517 78.5766C70.3006 78.6745 70.3984 78.6256 70.4963 78.5766C70.9366 78.185 71.2301 77.6464 71.4258 77.0589C71.4747 76.8142 71.3769 76.5204 71.279 76.3246L69.9581 73.6809C70.056 73.534 70.2517 73.534 70.3984 73.4851C70.692 73.4851 70.9855 73.6319 71.279 73.7298C71.5726 74.5132 71.915 75.3454 72.4531 76.0308C72.551 76.4715 72.6978 77.0589 72.4042 77.4017C72.1107 77.9891 71.8172 78.4787 71.4258 79.0172C71.0833 79.3599 70.5941 79.311 70.1049 79.3599H69.9581C68.784 79.9964 67.561 80.388 66.289 80.7797C65.7509 81.0245 65.1149 80.8287 64.6746 80.486C64.2343 80.1433 64.0386 79.6537 63.7451 79.2131C63.4026 78.7725 62.8645 79.1641 62.4731 78.9193C62.1307 78.3808 61.7882 77.8423 61.4947 77.2548C61.4947 77.1079 61.4947 76.961 61.6415 76.8631C62.0818 76.7162 62.571 76.7162 63.0602 76.6673C63.5005 76.6183 63.9897 76.7162 64.2832 77.01C64.8703 77.6954 65.1149 78.6256 65.9955 79.0662C66.6804 79.1152 67.2674 78.9193 67.8545 78.6256C68.197 78.4298 68.5883 78.136 68.5883 77.6954C68.5394 76.8142 67.9524 76.1288 67.2185 75.6392C66.4847 75.2475 65.702 74.709 65.1638 74.0236C64.8703 73.6319 64.8214 73.1913 64.6746 72.7997C64.6257 72.7017 64.43 72.7017 64.3811 72.7507C64.0875 72.9955 64.3322 73.4361 64.3322 73.7298C64.3811 73.9257 64.4789 74.1705 64.3811 74.3173C63.9408 74.66 63.3537 74.4642 62.8156 74.5132C61.7393 74.4642 60.712 74.0236 59.5868 74.1215C58.5105 74.1705 57.0428 74.9048 56.2601 73.8278C55.8687 72.7997 55.9666 71.5757 56.1622 70.5476C56.1622 70.4497 56.0644 70.3518 55.9666 70.3518C55.8687 70.3028 55.7709 70.3518 55.7219 70.4497C55.4284 71.4778 55.3795 72.6038 55.1349 73.6809C54.7435 74.6111 54.0586 75.5902 53.1291 76.0798C52.2974 76.5204 51.319 76.6673 50.2916 76.7652C48.4326 76.8142 46.7204 77.1569 45.5462 78.7725C45.4484 78.9193 45.3016 79.0662 45.3506 79.262C45.3995 79.311 45.5462 79.3599 45.5952 79.311C46.8671 77.8912 48.4815 77.3037 50.3406 77.4017C52.1017 77.4017 53.8629 77.1079 54.9881 75.5902C55.2817 75.2475 55.4773 74.9048 55.7219 74.5132C55.9176 74.5132 56.0644 74.7579 56.2112 74.8559C56.2601 75.3944 55.8198 75.7371 55.6241 76.1777C55.3795 76.6673 55.1349 77.2548 54.6457 77.5485C54.0586 77.6954 53.5694 78.0871 53.0313 78.3808C52.4931 78.6256 51.8082 78.7235 51.1722 78.5766C50.3895 78.4298 49.3132 78.2339 48.5305 78.5766C48.1391 78.8214 47.7966 79.262 47.4053 79.5068C46.8671 79.7516 46.3779 80.1922 45.7419 80.1433C45.3016 80.0453 44.7635 79.7516 44.3721 80.1433C43.8829 80.5839 43.7851 81.3672 43.1491 81.6609C42.4153 82.0526 41.6325 81.6609 40.8987 81.612C40.9965 80.8776 41.0944 80.1922 41.5836 79.6537C41.8771 79.6047 42.1217 79.5558 42.3663 79.3599C42.6599 79.1152 42.8556 78.7725 43.0512 78.4298C43.6872 78.0381 44.4211 77.7443 44.8124 77.0589C45.106 76.4225 45.106 75.835 45.5952 75.2475L45.8398 75.1496L47.1607 75.0517C47.6988 74.8069 48.188 74.5621 48.6772 74.1705C48.824 74.0236 48.8729 73.7788 48.824 73.534C48.5794 72.8976 48.3837 72.457 48.2369 71.7716C48.0902 71.0861 48.188 70.4007 48.0902 69.6174C48.0413 69.5685 47.9923 69.4216 47.8945 69.4216C47.0139 69.6174 46.1822 69.8622 45.2038 69.7153C43.8829 69.5685 42.5131 68.6872 42.0239 67.3654C41.5836 66.2394 41.6814 64.6238 42.5131 63.6936C43.2959 62.7144 44.2743 61.9801 45.2527 61.1478C45.3995 61.0499 45.3995 60.8541 45.4484 60.7072C45.4484 60.5113 45.2527 60.3645 45.106 60.2666C44.5189 60.1197 43.834 60.3155 43.2469 60.0707C42.2196 59.728 41.4368 58.7489 41.2901 57.6718C41.2411 57.1822 41.339 56.7906 41.5836 56.3989C42.3663 57.0843 42.9534 57.6718 43.6872 57.8676ZM40.7519 79.7516V79.8985C40.5073 80.486 40.3606 81.1714 40.1649 81.8568C39.7246 81.8078 39.3332 81.6609 38.9908 81.5141C38.8929 81.4162 38.9908 81.3182 38.9908 81.2203C39.431 80.8287 39.2843 80.3391 39.3821 79.8006C39.431 79.5068 39.7246 79.262 40.0181 79.1152C40.3606 79.1641 40.5562 79.5068 40.7519 79.7516ZM42.9045 77.6954C42.6599 78.185 42.3174 78.7725 41.7793 79.0662C41.5836 79.1152 41.339 79.1152 41.1433 79.0172C41.0455 78.9193 40.8498 78.8214 40.8498 78.6256C40.8987 78.4298 40.8009 78.185 40.9965 78.0871C41.3879 77.8423 41.7793 77.5975 42.1707 77.2548C42.2685 77.2058 42.4642 77.1569 42.5131 77.2548C42.7088 77.4017 42.8556 77.4996 42.9045 77.6954ZM67.4142 77.4996C67.4631 77.6954 67.7567 77.9402 67.561 78.136C67.1696 78.4298 66.7293 78.6256 66.1912 78.5766C65.7998 78.2829 65.8487 77.7444 65.5063 77.3527C65.4084 77.0589 64.9681 77.0589 65.066 76.7652L65.2127 76.6673C65.7509 76.6673 66.289 76.6673 66.8272 76.5694C67.3653 76.5204 67.2185 77.1569 67.4142 77.4996Z" fill="#E21B4D"/>
<path fill-rule="evenodd" clip-rule="evenodd" d="M98.3321 69.5194C98.6256 69.9111 98.8702 70.3028 99.0659 70.7923C99.1148 70.8903 99.0659 70.9882 99.017 71.0861C98.9681 71.184 98.8702 71.2819 98.7234 71.184C98.381 71.0861 98.4299 70.5475 97.9896 70.5965C97.6961 70.5965 97.5004 70.8413 97.2558 70.9882C96.8155 71.3798 96.2284 71.7715 96.1306 72.359C96.0328 72.5548 96.0817 72.8975 95.886 72.9954C95.7881 73.0444 95.6414 72.9465 95.6414 72.8485C95.5925 72.0652 95.8371 71.3309 96.3752 70.7923C96.9133 70.3517 97.3047 69.7153 97.745 69.1767C98.0385 69.1278 98.2342 69.3236 98.3321 69.5194ZM98.5278 76.0308C98.6256 76.2266 98.8213 76.4714 98.6745 76.7162C98.4788 76.8631 98.1364 76.7651 97.8918 76.7651C97.5983 76.6183 97.5004 76.2266 97.5004 75.8839C97.5004 75.786 97.5004 75.737 97.5982 75.6391C97.9407 75.6391 98.2831 75.737 98.5278 76.0308ZM105.866 61.0498C106.013 61.2456 105.866 61.4415 105.768 61.5883C105.083 62.2248 104.252 62.9102 103.762 63.6935C103.567 63.9383 103.42 64.232 103.322 64.5258C103.322 64.5747 103.273 64.5747 103.224 64.5747C103.077 64.1831 103.273 63.7425 103.371 63.3508C103.713 62.4206 104.496 61.5394 105.328 60.9029C105.426 60.854 105.768 60.805 105.866 61.0498ZM108.655 57.9165C109.193 58.2592 109.388 58.9936 110.024 59.1405C111.101 59.3853 112.177 59.6301 113.155 60.1196C113.84 60.4623 114.476 60.9519 115.112 61.4904C115.699 61.7842 116.433 61.7842 117.069 61.98C117.999 62.2248 118.732 62.9102 119.564 63.4487C120.64 64.281 122.157 64.1831 123.38 64.7216C125.337 65.3581 126.902 66.8757 128.712 67.757C129.642 68.2465 131.061 68.4424 131.99 67.9038C132.626 67.4632 133.018 66.8757 132.871 66.0435C132.528 64.0362 130.327 63.0081 129.299 61.3436C129.104 60.9519 128.957 60.4134 129.055 59.9728C129.446 58.9936 130.474 58.4551 131.354 58.1124C132.039 57.7697 132.92 57.8676 133.556 57.4759C133.8 57.3291 133.996 57.1332 134.143 56.9864C134.289 56.9864 134.289 57.1332 134.338 57.2311C134.534 58.4061 134.338 59.63 133.311 60.3155C132.92 60.6092 132.43 60.7071 131.99 60.805C131.599 60.9519 130.816 60.6582 130.865 61.3436C130.963 61.6863 131.256 61.8821 131.501 62.1269C132.871 63.2529 134.143 64.7216 134.289 66.4841C134.338 67.8549 133.409 69.0299 132.235 69.6174C131.354 69.9601 130.278 70.1069 129.348 69.8621C129.104 69.8132 128.712 69.5684 128.517 69.9111C128.468 70.3028 128.712 70.5965 128.712 70.9392C128.81 71.5757 128.81 72.4079 128.615 73.0444C128.517 73.5339 128.027 74.1214 128.468 74.611C128.908 75.2964 129.789 75.1006 130.522 75.1985C130.914 75.2475 131.061 75.6881 131.158 75.9818C131.305 76.3735 131.305 76.8141 131.452 77.1078C131.452 77.8422 132.284 78.1359 132.675 78.6255C133.164 79.1641 133.605 80.0942 134.436 80.0453C134.73 80.6328 134.877 81.1713 134.974 81.8567L134.877 81.9546C134.192 81.9546 133.262 82.1505 132.773 81.6609C132.186 81.2692 131.99 80.1922 131.11 80.4859C130.718 80.7796 130.18 80.8776 129.74 80.6817C129.299 80.5349 129.006 80.1432 128.615 79.8984C127.44 79.0172 125.875 78.5766 124.358 78.9193C123.478 79.164 122.793 78.5276 122.108 78.1359C121.178 77.7443 120.934 76.7651 120.738 75.9329L120.591 74.9048C120.591 74.8068 120.689 74.7089 120.787 74.66H120.934C121.472 75.8839 122.499 77.2547 123.82 77.6953C125.043 78.1849 126.168 77.5485 127.489 77.7932C128.712 77.9401 129.691 78.7234 130.62 79.4578C130.718 79.4578 130.767 79.4088 130.816 79.3109V79.213C129.691 77.7932 128.125 77.0589 126.315 77.2058C124.799 77.4995 123.331 77.0099 122.45 75.737C121.961 75.0027 121.619 74.2194 121.472 73.3871C121.325 72.4079 121.13 71.3309 120.787 70.4496C120.689 70.4007 120.591 70.3028 120.494 70.3517L120.396 70.4986C120.542 71.4288 120.836 72.5548 120.494 73.5339C120.249 74.3173 119.466 74.611 118.732 74.66C117.999 74.7089 117.314 74.5621 116.531 74.5621C114.77 74.5131 113.204 75.1985 111.394 75.0516C111.541 74.611 111.834 74.1704 111.688 73.6808C111.639 73.5829 111.492 73.5829 111.394 73.5829C111.052 73.7787 111.101 74.2194 110.905 74.5131C110.514 75.1495 109.78 75.737 109.046 75.8839C108.508 76.2756 108.019 76.8141 107.578 77.3037C107.431 77.4505 107.431 77.7443 107.48 77.9401C107.823 78.8213 108.85 78.9193 109.633 79.164C110.024 79.213 110.367 79.0661 110.562 78.7234C110.905 78.1849 110.954 77.3037 111.737 77.2058H113.449C113.596 77.2547 113.693 77.3526 113.791 77.4995L113.742 77.7443C113.351 78.1849 113.204 78.8214 112.715 79.1151C112.421 79.213 112.079 79.1151 111.883 79.3599C111.786 79.9474 111.639 80.5838 111.052 80.8776C110.611 81.2692 109.975 81.0734 109.486 80.9265C108.557 80.5838 107.627 80.388 106.698 80.0942C106.306 79.9963 106.16 79.5068 105.719 79.4088C105.328 79.3109 104.888 79.6047 104.545 79.262C104.349 78.8213 104.252 78.5276 104.154 78.038C104.007 77.7443 103.909 77.4016 103.86 77.0589C103.811 76.7651 103.86 76.5693 103.958 76.3245L105.23 74.0235C105.328 73.8767 105.426 73.7298 105.572 73.6808C105.866 73.7298 106.208 73.8767 106.502 74.0235L106.453 74.1704L105.132 76.1777C104.839 76.8141 105.132 77.5485 105.426 78.087C105.475 78.1359 105.524 78.2339 105.572 78.1849C105.524 77.7932 105.475 77.4016 105.572 76.961C105.67 76.5693 105.915 76.2266 106.111 75.8839L107.138 74.3662C107.236 74.1214 107.236 73.7298 107.04 73.485C106.6 73.0444 105.964 72.8975 105.572 72.31C104.741 71.184 104.643 69.8621 104.545 68.4424C104.545 68.3445 104.447 68.1976 104.301 68.1486C104.203 68.0997 104.105 68.2466 104.056 68.2955C103.811 69.2257 103.958 70.3517 104.203 71.184C104.349 71.8204 104.643 72.4569 104.936 73.0444C104.985 73.1423 104.888 73.2892 104.79 73.3381C104.105 73.3871 103.42 73.3381 102.784 73.2402C101.903 73.0933 101.267 72.4079 100.534 71.8694C100.436 71.8204 100.387 71.9184 100.338 71.9673C100.534 72.9465 101.61 73.5339 101.952 74.4152C102.148 75.1495 102.882 75.6881 103.029 76.4714C103.029 76.5693 102.931 76.7162 102.833 76.7651C102.588 76.8141 102.344 76.6672 102.099 76.8141C102.05 77.2547 102.344 77.6953 102.148 78.087C101.903 78.4786 101.561 78.9193 101.121 78.9193C100.24 78.6255 99.3594 78.2339 98.4788 77.9891C97.8429 77.9401 97.2069 78.038 96.6198 78.087C96.0328 77.9891 95.6414 77.4505 95.2011 77.1568C95.0543 77.1078 94.9076 77.1078 94.8097 77.2058C93.8313 78.1849 92.755 79.262 91.2874 79.213C91.1895 79.213 91.1406 79.1151 91.1406 79.0172V78.9193C91.7766 78.3318 92.5593 77.7443 92.8529 76.912C93.0485 76.2266 93.6356 75.737 93.8802 75.1006C93.9291 75.0027 93.8313 74.9537 93.7334 74.9048L93.5867 75.0027C92.8529 75.737 92.3147 76.5693 91.7766 77.3526C91.2384 77.8912 90.4557 78.2339 89.624 78.038C89.5262 77.9891 89.5262 77.8422 89.5751 77.7443C92.6082 75.8839 92.9507 72.5548 93.7824 69.5194C94.3694 67.5122 94.8097 65.456 96.3752 63.8404C98.7234 61.2456 101.659 59.728 104.252 57.4759C104.643 57.1332 105.034 56.7905 105.524 56.7905C106.796 56.6926 107.774 57.1822 108.655 57.9165ZM136.589 79.5557C136.833 79.8984 136.736 80.4369 136.833 80.8286C136.882 81.1223 137.274 81.3671 137.078 81.6609L136.002 82.0036C135.806 82.0036 135.904 81.7588 135.806 81.6609C135.708 81.0244 135.561 80.5838 135.366 79.9963C135.317 79.6536 135.659 79.4088 135.904 79.213C136.148 79.1151 136.344 79.4088 136.589 79.5557ZM134.094 77.3526C134.485 77.6953 135.023 77.9401 135.317 78.3807C135.366 78.5766 135.219 78.7724 135.121 78.9193C134.974 79.0661 134.779 79.164 134.534 79.164C134.289 79.164 134.094 79.0172 133.947 78.8213C133.702 78.4297 133.36 78.087 133.262 77.6953C133.409 77.4505 133.751 77.0589 134.094 77.3526ZM110.514 76.961C110.465 77.4505 110.318 77.8912 110.122 78.3318C109.975 78.6255 109.535 78.5276 109.242 78.4786C108.948 78.3807 108.459 78.3318 108.41 77.8912C108.361 77.4995 108.557 77.1078 108.752 76.8141C109.193 76.7651 109.731 76.8631 110.171 76.7651C110.367 76.7651 110.514 76.8141 110.514 76.961Z" fill="#E21B4D"/>
<path d="M182.331 0.489459C183.212 0.489459 183.946 0.783203 184.533 1.41965C185.12 2.00714 185.462 2.79046 185.462 3.62273C185.462 4.50396 185.169 5.23833 184.533 5.82581C183.946 6.46226 183.163 6.75601 182.331 6.75601C181.451 6.75601 180.717 6.46226 180.081 5.82581C179.494 5.23833 179.151 4.45501 179.151 3.62273C179.151 2.7415 179.445 2.00714 180.081 1.41965C180.717 0.832161 181.451 0.489459 182.331 0.489459ZM186 3.62273C186 2.64358 185.658 1.76235 184.924 1.02799C184.19 0.342587 183.359 -0.0490723 182.331 -0.0490723C181.304 -0.0490723 180.472 0.293629 179.738 1.02799C179.005 1.76235 178.662 2.59463 178.662 3.62273C178.662 4.65084 179.005 5.48311 179.738 6.21747C180.472 6.95183 181.304 7.29454 182.331 7.29454C183.359 7.29454 184.19 6.95183 184.924 6.21747C185.609 5.53207 186 4.65084 186 3.62273ZM183.31 2.83941C183.31 3.13316 183.163 3.37794 182.869 3.47586C182.723 3.52482 182.478 3.57377 182.184 3.57377H181.548V2.10505H182.136C182.527 2.10505 182.82 2.15401 183.016 2.25192C183.212 2.3988 183.31 2.54567 183.31 2.83941ZM180.864 1.61548V5.62999H181.548V4.06335H182.087C182.478 4.06335 182.723 4.11231 182.869 4.21022C183.114 4.35709 183.261 4.65084 183.261 5.14041V5.43416V5.53207V5.58103V5.62999H183.946L183.897 5.58103C183.897 5.53207 183.848 5.48311 183.848 5.3852C183.848 5.28728 183.848 5.18937 183.848 5.09145V4.79771C183.848 4.60188 183.75 4.40605 183.652 4.16126C183.505 3.96543 183.261 3.81856 182.967 3.7696C183.212 3.72065 183.408 3.67169 183.554 3.57377C183.799 3.4269 183.946 3.13316 183.946 2.79046C183.946 2.30088 183.75 1.95818 183.31 1.76235C183.065 1.66444 182.723 1.61548 182.184 1.61548H180.864Z" fill="#E21B4D"/>
</g>
<defs>
<clipPath id="clip0_109_356">
<rect width="186" height="87" fill="white"/>
</clipPath>
</defs>
</svg>
