<svg width="100" height="38" viewBox="0 0 100 38" fill="none" xmlns="http://www.w3.org/2000/svg">
<path d="M31.2119 18.9465C31.2119 8.46963 39.6754 0 50.1446 0C60.6138 0 69.0772 8.46963 69.0772 18.9465C69.0772 29.4234 60.6138 37.893 50.1446 37.893C39.6754 37.893 31.2119 29.3744 31.2119 18.9465Z" fill="#FFD300"/>
<path fill-rule="evenodd" clip-rule="evenodd" d="M34.93 7.68639C35.2236 7.83326 35.5171 7.98013 35.8595 8.17596C37.2783 9.15511 38.2078 9.98739 40.3603 11.7988C40.9963 12.4353 41.7301 13.4634 42.2683 14.0998C43.4424 15.5685 44.2741 16.5966 44.4208 17.8206C44.7633 20.2684 45.1057 21.6392 46.0352 24.1361C46.1331 24.3809 46.5245 24.7236 46.7691 25.0173C47.3561 25.7517 47.6007 26.9266 48.677 27.5631C49.2641 27.9058 49.3619 27.9547 49.5576 28.1016C49.8511 28.3464 49.3619 29.2276 47.8453 29.0318C48.6281 29.4235 48.5302 30.3047 47.405 30.3537C45.2036 30.4516 43.8338 29.1787 43.5402 28.836C43.3935 28.6891 42.9532 29.2766 42.1704 29.5703C41.3877 29.962 40.3114 29.5703 39.4797 29.7172C38.697 29.8641 37.6696 30.3537 36.838 30.4026C35.3703 30.4516 35.1746 29.4235 35.1746 28.5422C35.1746 28.3464 35.1746 28.1995 35.1746 28.1506C35.0279 28.6891 34.4897 29.6193 34.4897 29.6193C34.2941 30.0599 34.0005 30.5984 33.4624 30.7943L31.8969 30.9901C30.6739 31.5286 29.4508 31.9203 28.1789 32.3609C27.445 32.5078 26.6134 32.3609 26.0752 31.9203C25.6349 31.5776 25.3903 31.137 25.1457 30.6964C24.9011 30.5984 24.5587 30.6964 24.2651 30.5984C24.0205 30.5495 23.8738 30.3537 23.727 30.2068L22.6507 28.3954C22.5529 28.1506 22.5529 27.8079 22.6507 27.5631C22.8464 27.1714 23.2867 26.9756 23.727 26.9756C24.5097 26.9266 25.3903 26.6819 26.1731 26.9756C26.5155 26.5839 27.0537 26.6329 27.5429 26.535C27.3472 26.2412 27.0537 26.0944 26.809 25.8496C25.3903 26.1923 23.8248 25.9475 22.455 25.7027C21.1831 25.409 20.1068 26.1433 18.8348 25.9475L18.4434 26.7798C17.8564 27.4162 17.8075 28.4933 16.9269 28.9339C16.2909 29.0808 15.8017 29.5214 15.2635 29.8151C14.2851 30.3537 12.9642 30.1089 11.888 29.913C11.4477 29.8641 11.1541 29.913 10.7628 30.0599C10.4203 30.3047 10.0289 30.6964 9.63756 30.9901C9.00158 31.2349 8.46344 31.7734 7.77854 31.8224C7.38717 31.8224 6.99579 31.5776 6.60442 31.6755C6.1152 32.214 5.8706 33.0953 5.08785 33.3401C4.3051 33.5849 3.32667 33.389 2.54392 33.1932C2.29931 33.2911 2.15255 33.4869 1.85902 33.438C1.32089 33.2911 0.782745 33.1442 0.293529 32.8505C0.0978425 32.6547 0.0489216 32.4099 0 32.214C0 31.8713 0.29353 31.5776 0.440295 31.2838C0.489217 30.9411 0.489218 30.4516 0.635983 30.1089C0.880591 29.5703 1.41873 29.2276 1.95686 28.9829C2.00579 28.5912 2.2504 28.2485 2.59285 28.0527C3.22883 27.71 3.91373 26.9266 4.7454 27.3673L5.62599 28.1016C6.40873 27.7589 6.21305 26.9756 6.60442 26.3392C6.80011 25.8985 7.04471 25.409 7.53393 25.409C7.87638 25.36 8.26775 25.4579 8.6102 25.409C9.09942 25.2621 9.63756 25.0663 9.98001 24.6746L9.93109 24.3809C9.44187 23.4507 9.29511 22.3247 9.24619 21.1986C8.3656 21.2965 7.43609 21.4434 6.50658 21.2476C5.13677 21.0518 3.81588 19.9747 3.27775 18.6039C2.69069 17.282 2.9353 15.4217 3.86481 14.2956C4.59863 13.4144 5.4303 12.6311 6.31089 11.9457C6.01736 11.8478 5.67491 11.8967 5.38138 11.7988C4.10942 11.603 2.83745 10.477 2.54392 9.20407C2.34824 8.3718 2.54392 7.58847 2.9353 6.90307C3.08206 6.7562 3.22883 6.60933 3.47343 6.70724C4.10942 6.95203 4.3051 7.29473 4.89216 7.58848L5.23461 7.78431C6.84903 8.32284 9.00158 8.32284 9.63756 10.3301C10.0289 11.8967 9.0505 13.0717 7.9253 13.9529C7.04471 14.5894 6.16412 15.3727 5.72383 16.3029C5.52814 16.9883 5.62598 17.6737 6.21304 18.1633C6.8001 18.7508 7.82746 18.7508 8.56128 18.457C9.93109 17.8695 11.2031 16.9883 12.4261 16.0581C13.6002 15.1769 15.0189 14.8342 16.5355 14.7852C17.2204 14.6383 17.8075 14.3446 18.3456 13.904C19.2751 13.0227 20.2536 12.2884 21.4277 11.9946C21.9658 11.8967 22.5039 11.8478 23.0421 11.7988C23.4824 11.603 23.7759 11.0644 24.1184 10.8197C25.7328 9.3999 27.8853 9.44886 29.5976 8.32284C30.576 7.58848 31.6523 7.0989 32.9243 7.14786C33.5113 7.19682 34.0495 7.29473 34.5387 7.49056L34.93 7.68639ZM36.5444 24.3319C35.4682 24.3809 34.7833 24.6256 34.0495 24.7236C34.0984 25.409 34.4897 25.9965 35.0279 26.7308C35.3214 25.6048 36.2509 25.1642 36.5444 24.3319Z" fill="#FFD300"/>
<path fill-rule="evenodd" clip-rule="evenodd" d="M64.0867 24.5767C64.5759 25.3111 64.8694 26.0454 65.3097 26.8288C65.75 25.9965 66.1414 25.2132 66.5327 24.7236C66.4838 24.6746 65.2119 24.8215 64.0867 24.5767ZM65.114 28.1996C65.0651 28.3464 64.9672 28.3954 64.7716 28.3954C64.9183 29.0808 64.4291 30.3537 63.2061 30.4027C62.3744 30.4516 61.0046 29.6193 60.2219 29.5704C59.3902 29.5214 57.8736 30.1579 56.993 28.836C55.8189 30.2558 54.4491 30.6474 53.275 30.5985C52.5901 30.5985 51.8563 30.2068 52.8836 29.3256C50.6332 30.06 50.6332 28.5423 51.0246 28.2485C51.2692 28.0527 51.5627 27.9058 52.3944 27.0736C55.5254 23.7934 54.3513 18.1144 57.7758 14.3446C59.0967 12.8759 60.1729 12.0436 62.8636 10.1343C63.7931 9.49785 64.7226 8.56766 65.6032 7.93121L65.6521 8.02913V7.98017C66.1903 7.58851 66.6795 7.19686 67.2666 7.04998C68.4896 6.90311 69.6148 7.29477 70.5443 7.93121C71.0335 8.27392 71.4249 8.66557 71.8163 9.15515C72.1098 9.44889 72.5501 9.44889 72.9415 9.59577C74.0667 9.7916 75.0451 10.2322 75.9746 10.8197C76.6106 11.2114 77.1487 11.8968 77.9315 11.9947C78.861 12.1416 79.6927 12.4353 80.5243 12.9249C81.5028 13.5613 82.3833 14.3446 83.5575 14.5405C85.9057 14.7852 87.8626 16.1071 89.7216 17.429C90.7979 18.0654 92.0698 18.7998 93.3907 18.3591C93.7821 18.2123 94.0756 17.8696 94.1735 17.5269C94.2713 16.6456 93.7332 15.9602 93.195 15.3238C92.0698 14.0019 90.113 12.8759 90.3576 10.9666C90.7 9.54681 92.2655 8.71453 93.4886 8.32287C94.1735 8.07809 95.0051 8.176 95.5922 7.58851C95.8857 7.39268 96.0325 6.70728 96.5217 6.95207C96.9131 7.19685 96.962 7.68643 97.0109 8.12704C97.2066 9.49785 96.9131 10.8687 95.6411 11.652C95.054 12.0436 94.4181 12.1905 93.7332 12.3374C94.7605 13.1697 95.7879 14.1978 96.3749 15.3727C96.7174 16.0581 96.9131 16.6456 96.962 17.429C96.9131 18.8977 96.0325 20.1706 94.7605 20.9049C94.0267 21.2966 93.195 21.4435 92.3144 21.4435C91.972 21.4435 91.6784 21.3455 91.3849 21.3455C91.5317 22.0309 91.5317 22.9611 91.3849 23.7445C91.336 24.1361 91.0914 24.5767 91.0914 25.0663C91.2871 25.3111 91.5806 25.3111 91.8252 25.3111C92.4612 25.3111 93.2439 25.2621 93.5864 25.9475C93.8799 26.584 94.0267 27.3183 94.2713 27.9548C94.3691 28.0527 94.4181 28.2975 94.5648 28.2485C95.0051 27.8569 95.4454 27.3183 96.0814 27.4652C96.6685 27.8569 97.2555 28.2975 97.8426 28.7381C97.9893 28.885 98.0383 29.0808 98.0872 29.3256C98.5764 29.5214 99.2124 29.8641 99.3592 30.4516C99.457 30.8433 99.4081 31.2349 99.5059 31.5776C99.6527 31.9693 100.044 32.4589 99.7505 32.9484L99.5548 33.0953L97.6958 33.6828C97.5491 33.6828 97.4023 33.5849 97.2555 33.438C96.2771 33.3891 95.103 33.6828 94.3202 32.9974C93.9778 32.7036 93.7332 32.361 93.4886 31.9693C92.9015 32.263 92.0698 32.4589 91.4828 32.0672C90.2597 31.137 89.0367 30.2068 87.3734 30.2558C86.6395 30.4027 85.7589 30.5985 85.0251 30.3047C84.3402 29.8152 83.5575 29.5704 83.0193 28.836C82.2366 28.0037 82.2366 27.0246 81.9431 25.9965C80.8668 26.2413 79.6927 26.0944 78.6164 26.0454C77.7358 25.9965 76.9041 26.1434 76.0725 26.3392C75.0451 26.535 73.9199 26.6329 72.8436 26.584L72.3055 26.9756C72.5501 27.0246 72.7947 27.0246 72.9904 27.2204L73.1861 27.4163C74.0667 27.5142 75.094 27.3673 75.9257 27.5631C76.1214 27.6121 76.3171 27.8079 76.4149 28.0037C76.5128 28.2485 76.5128 28.5423 76.366 28.7381C75.9257 29.3256 75.6811 30.011 75.094 30.5006C74.9473 30.6964 74.507 30.4516 74.458 30.7943C74.2624 31.6755 73.4307 32.4099 72.599 32.6057C72.2566 32.6547 71.8652 32.6057 71.5717 32.5078C70.5443 32.1651 69.517 31.8714 68.4896 31.5776C68.1472 31.4797 67.8536 31.137 67.5601 30.9412C67.1198 30.9412 66.4838 31.0881 66.1903 30.6964C66.0435 30.5985 65.8968 30.2558 65.8478 30.1089C65.5054 29.6683 65.2608 28.885 65.114 28.1996Z" fill="#FFD300"/>
<path fill-rule="evenodd" clip-rule="evenodd" d="M34.4407 13.855C34.7343 14.5893 34.7343 15.5685 34.5386 16.3518C34.4897 16.4008 34.4407 16.4008 34.3918 16.3518C34.245 15.6664 34.0983 14.981 33.8537 14.2956C33.7069 13.9039 33.2177 13.5612 33.4134 13.1206C33.5112 13.0227 33.7069 13.0227 33.8537 13.0717C34.0983 13.3165 34.245 13.5612 34.4407 13.855ZM42.2682 20.709C42.8063 21.3455 43.1977 22.0309 43.002 22.8631C42.9042 23.01 42.9531 23.3038 42.7085 23.3527C42.6106 23.4017 42.5128 23.3038 42.5128 23.2058C42.4639 22.7652 42.4639 22.2757 42.2193 21.933C41.9257 21.6392 41.5833 21.0517 41.0941 21.0517C40.7516 21.1496 40.507 21.5413 40.3113 21.7861C40.3113 21.835 40.2624 21.835 40.2135 21.7861C40.0178 21.2965 40.4092 20.9048 40.5559 20.5132C40.8495 20.2194 40.8005 19.3872 41.4365 19.632C41.8768 19.9257 41.9747 20.4153 42.2682 20.709ZM41.2408 26.5349C41.2898 26.8287 41.2898 27.2693 40.9962 27.4651C40.7027 27.5631 40.3113 27.612 39.9689 27.5631C39.871 27.5141 39.7732 27.4651 39.8221 27.3672C39.9689 26.9266 40.4092 26.437 40.8984 26.3391C40.9962 26.3391 41.1919 26.3391 41.2408 26.5349ZM5.52805 8.6655C6.70217 8.95924 7.97413 8.95924 8.85472 9.88943C9.34393 10.4769 9.39286 11.505 9.00148 12.0925C8.31658 13.2675 6.94678 13.855 6.11511 14.8831C5.28344 15.5685 4.98991 16.6456 5.23452 17.7226C5.52805 18.6528 6.45756 19.2893 7.38707 19.3382C8.85472 19.3872 9.93099 18.6528 11.1051 17.9674C12.2792 17.1351 13.3555 16.0581 14.6764 15.7154C15.557 15.4216 16.5354 15.5685 17.416 15.2258C18.3455 15.03 19.0793 14.2466 19.8132 13.5612C20.6448 12.8758 21.6233 12.4842 22.6995 12.5331C23.678 12.68 24.2161 11.7988 24.901 11.2113C26.0262 10.1832 27.4939 10.0853 28.8147 9.49778C29.7442 9.20403 30.4781 8.51863 31.3587 8.07801C32.1903 7.73531 33.3155 7.6374 34.1472 7.9801C34.6853 8.22489 35.2724 8.46967 35.7616 8.86133L39.7243 12.1904C39.7732 12.3373 39.92 12.4352 40.0178 12.4842C41.143 13.855 42.3171 15.1768 43.2466 16.6945C43.5401 17.233 43.6869 17.7716 43.8337 18.3591C44.0294 20.6111 44.6164 22.5694 45.3502 24.5277C45.5459 24.8214 45.9373 25.0662 46.133 25.36C46.769 26.2412 47.1603 27.3672 48.1877 27.9547L48.7748 28.2485C48.8237 28.2974 48.8237 28.3953 48.7748 28.4443L48.6769 28.5422C47.4539 28.738 46.5244 28.0037 45.8884 27.1224C45.497 26.3391 44.9589 25.5068 44.0783 25.1641C44.0294 25.1641 43.9804 25.2131 43.9804 25.2131C44.0783 25.5068 44.3718 25.7027 44.4697 25.9475C44.8121 26.486 45.1056 27.0735 45.2524 27.661C45.4481 28.2974 46.133 28.738 46.6711 29.0807L47.4539 29.4724C47.5517 29.5213 47.6006 29.6682 47.5028 29.7661L47.405 29.8151C46.0841 29.864 44.91 29.4234 43.9804 28.4443C43.7848 28.1995 43.4912 28.0037 43.1488 28.0037C42.5617 28.5422 41.9747 29.0318 41.1919 29.0807C40.3602 28.9339 39.4797 28.9339 38.7458 29.2276C38.0609 29.4724 37.376 29.7661 36.6422 29.7661C36.2997 29.7661 35.9084 29.6193 35.7616 29.2766C35.7616 28.8359 35.4681 28.3464 35.7127 27.9058L36.2019 27.1714C36.2019 27.0735 36.153 26.9756 36.0551 26.9756C35.8595 26.9266 35.517 27.2693 35.4192 26.9266C35.4681 26.1922 36.2019 25.7027 36.6911 25.2131C36.789 24.6256 37.0336 24.0871 37.4739 23.5975C37.4739 23.5485 37.4249 23.4506 37.3271 23.4506C36.6911 23.5485 36.0551 23.6954 35.3702 23.6954C34.8321 23.9892 34.1472 24.185 33.5112 23.9892C33.3645 23.8912 33.4134 23.7444 33.4623 23.6465C34.1472 22.7163 34.3918 21.5413 34.1961 20.4153C34.1472 20.3663 34.1472 20.2684 34.0494 20.2684C33.9515 20.2684 33.9515 20.3663 33.9026 20.4153C33.7558 21.4923 33.4134 22.3246 32.8263 23.2548C32.386 23.6954 31.7011 23.6954 31.1141 23.8423C30.9673 23.8912 30.8205 24.0381 30.8205 24.185C30.8205 24.5767 31.0651 24.8214 31.2119 25.1641L32.4839 27.5141C32.5328 28.1505 32.2393 28.787 32.0925 29.3745C32.1414 29.4724 32.2393 29.4234 32.3371 29.3745C32.7774 28.9828 33.0709 28.4443 33.2666 27.8568C33.3155 27.612 33.2177 27.3183 33.1198 27.1224L31.799 24.4787C31.8968 24.3319 32.0925 24.3319 32.2393 24.2829C32.5328 24.2829 32.8263 24.4298 33.1198 24.5277C33.4134 25.311 33.7558 26.1433 34.294 26.8287C34.3918 27.2693 34.5386 27.8568 34.245 28.1995C33.9515 28.787 33.658 29.2766 33.2666 29.8151C32.9242 30.1578 32.4349 30.1088 31.9457 30.1578H31.799C30.6248 30.7942 29.4018 31.1859 28.1298 31.5776C27.5917 31.8223 26.9557 31.6265 26.5154 31.2838C26.0751 30.9411 25.8794 30.4515 25.5859 30.0109C25.2435 29.5703 24.7053 29.962 24.314 29.7172C23.9715 29.1786 23.629 28.6401 23.3355 28.0526C23.3355 27.9058 23.3355 27.7589 23.4823 27.661C23.9226 27.5141 24.4118 27.5141 24.901 27.4651C25.3413 27.4162 25.8305 27.5141 26.124 27.8078C26.7111 28.4932 26.9557 29.4234 27.8363 29.8641C28.5212 29.913 29.1083 29.7172 29.6953 29.4234C30.0378 29.2276 30.4292 28.9339 30.4292 28.4932C30.3802 27.612 29.7932 26.9266 29.0593 26.437C28.3255 26.0454 27.5428 25.5068 27.0046 24.8214C26.7111 24.4298 26.6622 23.9892 26.5154 23.5975C26.4665 23.4996 26.2708 23.4996 26.2219 23.5486C25.9284 23.7933 26.173 24.234 26.173 24.5277C26.2219 24.7235 26.3197 24.9683 26.2219 25.1152C25.7816 25.4579 25.1945 25.2621 24.6564 25.311C23.5801 25.2621 22.5528 24.8214 21.4276 24.9194C20.3513 24.9683 18.8837 25.7027 18.1009 24.6256C17.7095 23.5975 17.8074 22.3736 18.0031 21.3455C18.0031 21.2476 17.9052 21.1496 17.8074 21.1496C17.7095 21.1007 17.6117 21.1496 17.5628 21.2475C17.2692 22.2757 17.2203 23.4017 16.9757 24.4787C16.5843 25.4089 15.8994 26.3881 14.9699 26.8776C14.1383 27.3183 13.1598 27.4651 12.1325 27.5631C10.2734 27.612 8.56119 27.9547 7.38707 29.5703C7.28923 29.7172 7.14246 29.864 7.19138 30.0599C7.2403 30.1088 7.38707 30.1578 7.43599 30.1088C8.70795 28.6891 10.3224 28.1016 12.1814 28.1995C13.9426 28.1995 15.7037 27.9058 16.8289 26.3881C17.1225 26.0454 17.3182 25.7027 17.5628 25.311C17.7585 25.311 17.9052 25.5558 18.052 25.6537C18.1009 26.1922 17.6606 26.535 17.4649 26.9756C17.2203 27.4651 16.9757 28.0526 16.4865 28.3464C15.8994 28.4932 15.4102 28.8849 14.8721 29.1787C14.3339 29.4234 13.649 29.5213 13.0131 29.3745C12.2303 29.2276 11.154 29.0318 10.3713 29.3745C9.97991 29.6193 9.63747 30.0599 9.24609 30.3047C8.70795 30.5495 8.21874 30.9901 7.58276 30.9411C7.14246 30.8432 6.60432 30.5495 6.21295 30.9411C5.72373 31.3817 5.62589 32.1651 4.98991 32.4588C4.25609 32.8505 3.47334 32.4588 2.73952 32.4098C2.83736 31.6755 2.9352 30.9901 3.42442 30.4515C3.71795 30.4026 3.96256 30.3536 4.20716 30.1578C4.50069 29.913 4.69638 29.5703 4.89207 29.2276C5.52805 28.8359 6.26187 28.5422 6.65325 27.8568C6.94678 27.2203 6.94677 26.6329 7.43599 26.0454L7.6806 25.9475L9.00148 25.8495C9.53962 25.6048 10.0288 25.36 10.5181 24.9683C10.6648 24.8214 10.7137 24.5767 10.6648 24.3319C10.4202 23.6954 10.2245 23.2548 10.0778 22.5694C9.93099 21.884 10.0288 21.1986 9.931 20.4153C9.88207 20.3663 9.83315 20.2194 9.73531 20.2194C8.85472 20.4153 8.02305 20.6601 7.04462 20.5132C5.72374 20.3663 4.35393 19.4851 3.86471 18.1632C3.42442 17.0372 3.52226 15.4216 4.35393 14.4914C5.13668 13.5123 6.11511 12.7779 7.09354 11.9456C7.24031 11.8477 7.24031 11.6519 7.28923 11.505C7.28923 11.3092 7.09354 11.1623 6.94677 11.0644C6.35972 10.9175 5.67481 11.1134 5.08776 10.8686C4.0604 10.5259 3.27766 9.54674 3.13089 8.46967C3.08197 7.9801 3.17981 7.58844 3.42442 7.19678C4.20717 7.88218 4.79423 8.46967 5.52805 8.6655ZM2.59275 30.5495V30.6963C2.34815 31.2838 2.20138 31.9692 2.00569 32.6546C1.5654 32.6057 1.17402 32.4588 0.831572 32.3119C0.733729 32.214 0.831572 32.1161 0.831572 32.0182C1.27187 31.6265 1.1251 31.1369 1.22295 30.5984C1.27187 30.3047 1.5654 30.0599 1.85893 29.913C2.20138 29.962 2.39707 30.3047 2.59275 30.5495ZM4.7453 28.4932C4.50069 28.9828 4.15824 29.5703 3.62011 29.8641C3.42442 29.913 3.17981 29.913 2.98412 29.8151C2.88628 29.7172 2.69059 29.6193 2.69059 29.4234C2.73952 29.2276 2.64167 28.9828 2.83736 28.8849C3.22873 28.6401 3.6201 28.3953 4.01148 28.0526C4.10932 28.0037 4.30501 27.9547 4.35393 28.0526C4.54962 28.1995 4.69638 28.2974 4.7453 28.4932ZM29.255 28.2974C29.304 28.4932 29.5975 28.738 29.4018 28.9339C29.0104 29.2276 28.5701 29.4234 28.032 29.3745C27.6406 29.0807 27.6895 28.5422 27.3471 28.1505C27.2492 27.8568 26.809 27.8568 26.9068 27.5631L27.0536 27.4651C27.5917 27.4651 28.1298 27.4651 28.668 27.3672C29.2061 27.3183 29.0594 27.9547 29.255 28.2974Z" fill="#E21B4D"/>
<path fill-rule="evenodd" clip-rule="evenodd" d="M60.1729 20.3173C60.4664 20.709 60.711 21.1006 60.9067 21.5902C60.9556 21.6881 60.9067 21.786 60.8578 21.8839C60.8089 21.9818 60.711 22.0798 60.5643 21.9818C60.2218 21.8839 60.2707 21.3454 59.8304 21.3944C59.5369 21.3944 59.3412 21.6391 59.0966 21.786C58.6563 22.1777 58.0693 22.5693 57.9714 23.1568C57.8736 23.3527 57.9225 23.6954 57.7268 23.7933C57.629 23.8422 57.4822 23.7443 57.4822 23.6464C57.4333 22.8631 57.6779 22.1287 58.216 21.5902C58.7542 21.1496 59.1455 20.5131 59.5858 19.9746C59.8794 19.9256 60.075 20.1215 60.1729 20.3173ZM60.3686 26.8286C60.4664 27.0245 60.6621 27.2692 60.5153 27.514C60.3197 27.6609 59.9772 27.563 59.7326 27.563C59.4391 27.4161 59.3412 27.0245 59.3412 26.6818C59.3412 26.5838 59.3412 26.5349 59.4391 26.437C59.7815 26.437 60.124 26.5349 60.3686 26.8286ZM67.7068 11.8477C67.8536 12.0435 67.7068 12.2393 67.609 12.3862C66.9241 13.0226 66.0924 13.708 65.6032 14.4914C65.4075 14.7362 65.2607 15.0299 65.1629 15.3236C65.1629 15.3726 65.114 15.3726 65.0651 15.3726C64.9183 14.9809 65.114 14.5403 65.2118 14.1487C65.5543 13.2185 66.337 12.3372 67.1687 11.7008C67.2665 11.6518 67.609 11.6029 67.7068 11.8477ZM70.4954 8.71439C71.0335 9.0571 71.2292 9.79146 71.8652 9.93833C72.9414 10.1831 74.0177 10.4279 74.9961 10.9175C75.681 11.2602 76.317 11.7498 76.953 12.2883C77.5401 12.582 78.2739 12.582 78.9099 12.7779C79.8394 13.0226 80.5732 13.708 81.4049 14.2466C82.4811 15.0789 83.9977 14.9809 85.2208 15.5195C87.1776 16.1559 88.7431 17.6736 90.5532 18.5548C91.4827 19.0444 92.9015 19.2402 93.831 18.7017C94.4669 18.2611 94.8583 17.6736 94.7116 16.8413C94.3691 14.8341 92.1676 13.806 91.1403 12.1414C90.9446 11.7498 90.7978 11.2112 90.8957 10.7706C91.287 9.79146 92.3144 9.25292 93.195 8.91022C93.8799 8.56752 94.7605 8.66544 95.3965 8.27378C95.6411 8.12691 95.8368 7.93108 95.9835 7.7842C96.1303 7.7842 96.1303 7.93108 96.1792 8.02899C96.3749 9.20397 96.1792 10.4279 95.1519 11.1133C94.7605 11.407 94.2713 11.505 93.831 11.6029C93.4396 11.7497 92.6568 11.456 92.7058 12.1414C92.8036 12.4841 93.0971 12.6799 93.3417 12.9247C94.7116 14.0507 95.9835 15.5195 96.1303 17.2819C96.1792 18.6527 95.2497 19.8277 94.0756 20.4152C93.195 20.7579 92.1187 20.9048 91.1892 20.66C90.9446 20.611 90.5532 20.3663 90.3575 20.709C90.3086 21.1006 90.5532 21.3944 90.5532 21.7371C90.6511 22.3735 90.6511 23.2058 90.4554 23.8422C90.3575 24.3318 89.8683 24.9193 90.3086 25.4089C90.7489 26.0943 91.6295 25.8984 92.3633 25.9964C92.7547 26.0453 92.9015 26.4859 92.9993 26.7797C93.1461 27.1713 93.1461 27.6119 93.2928 27.9057C93.2928 28.6401 94.1245 28.9338 94.5159 29.4234C95.0051 29.9619 95.4454 30.8921 96.277 30.8431C96.5706 31.4306 96.7173 31.9692 96.8152 32.6546L96.7173 32.7525C96.0324 32.7525 95.1029 32.9483 94.6137 32.4587C94.0267 32.0671 93.831 30.99 92.9504 31.2837C92.559 31.5775 92.0209 31.6754 91.5806 31.4796C91.1403 31.3327 90.8467 30.941 90.4554 30.6963C89.2813 29.815 87.7158 29.3744 86.1992 29.7171C85.3186 29.9619 84.6337 29.3255 83.9488 28.9338C83.0193 28.5421 82.7747 27.563 82.579 26.7307L82.4322 25.7026C82.4322 25.6047 82.5301 25.5068 82.6279 25.4578H82.7747C83.3128 26.6818 84.3402 28.0526 85.6611 28.4932C86.8841 28.9828 88.0093 28.3463 89.3302 28.5911C90.5532 28.738 91.5317 29.5213 92.4612 30.2556C92.559 30.2556 92.6079 30.2067 92.6568 30.1088V30.0109C91.5316 28.5911 89.9662 27.8567 88.1561 28.0036C86.6395 28.2973 85.1718 27.8078 84.2913 26.5349C83.802 25.8005 83.4596 25.0172 83.3128 24.1849C83.1661 23.2058 82.9704 22.1287 82.6279 21.2475C82.5301 21.1985 82.4322 21.1006 82.3344 21.1496L82.2365 21.2964C82.3833 22.2266 82.6768 23.3527 82.3344 24.3318C82.0898 25.1151 81.307 25.4089 80.5732 25.4578C79.8394 25.5068 79.1545 25.3599 78.3717 25.3599C76.6106 25.311 75.0451 25.9964 73.235 25.8495C73.3817 25.4089 73.6753 24.9682 73.5285 24.4787C73.4796 24.3808 73.3328 24.3808 73.235 24.3808C72.8925 24.5766 72.9414 25.0172 72.7457 25.3109C72.3544 25.9474 71.6205 26.5349 70.8867 26.6818C70.3486 27.0734 69.8594 27.6119 69.4191 28.1015C69.2723 28.2484 69.2723 28.5421 69.3212 28.738C69.6637 29.6192 70.691 29.7171 71.4738 29.9619C71.8652 30.0109 72.2076 29.864 72.4033 29.5213C72.7457 28.9828 72.7947 28.1015 73.5774 28.0036H75.2897C75.4364 28.0526 75.5343 28.1505 75.6321 28.2974L75.5832 28.5421C75.1918 28.9828 75.0451 29.6192 74.5558 29.9129C74.2623 30.0109 73.9199 29.9129 73.7242 30.1577C73.6263 30.7452 73.4796 31.3817 72.8925 31.6754C72.4522 32.0671 71.8162 31.8712 71.327 31.7244C70.3975 31.3817 69.468 31.1858 68.5385 30.8921C68.1471 30.7942 68.0004 30.3046 67.5601 30.2067C67.1687 30.1088 66.7284 30.4025 66.3859 30.0598C66.1903 29.6192 66.0924 29.3255 65.9946 28.8359C65.8478 28.5421 65.75 28.1994 65.701 27.8567C65.6521 27.563 65.701 27.3672 65.7989 27.1224L67.0708 24.8214C67.1687 24.6745 67.2665 24.5276 67.4133 24.4787C67.7068 24.5276 68.0493 24.6745 68.3428 24.8214L68.2939 24.9682L66.973 26.9755C66.6795 27.6119 66.973 28.3463 67.2665 28.8848C67.3154 28.9338 67.3644 29.0317 67.4133 28.9828C67.3644 28.5911 67.3155 28.1994 67.4133 27.7588C67.5111 27.3672 67.7557 27.0245 67.9514 26.6818L68.9788 25.1641C69.0766 24.9193 69.0766 24.5276 68.8809 24.2828C68.4406 23.8422 67.8047 23.6954 67.4133 23.1079C66.5816 21.9818 66.4838 20.66 66.3859 19.2402C66.3859 19.1423 66.2881 18.9954 66.1413 18.9465C66.0435 18.8975 65.9456 19.0444 65.8967 19.0934C65.6521 20.0236 65.7989 21.1496 66.0435 21.9818C66.1903 22.6183 66.4838 23.2547 66.7773 23.8422C66.8262 23.9401 66.7284 24.087 66.6305 24.136C65.9456 24.1849 65.2607 24.136 64.6248 24.0381C63.7442 23.8912 63.1082 23.2058 62.3744 22.6673C62.2765 22.6183 62.2276 22.7162 62.1787 22.7652C62.3744 23.7443 63.4506 24.3318 63.7931 25.213C63.9888 25.9474 64.7226 26.4859 64.8694 27.2692C64.8694 27.3672 64.7715 27.514 64.6737 27.563C64.4291 27.6119 64.1845 27.4651 63.9399 27.6119C63.8909 28.0526 64.1845 28.4932 63.9888 28.8848C63.7442 29.2765 63.4017 29.7171 62.9614 29.7171C62.0808 29.4234 61.2002 29.0317 60.3197 28.7869C59.6837 28.738 59.0477 28.8359 58.4606 28.8848C57.8736 28.7869 57.4822 28.2484 57.0419 27.9547C56.8951 27.9057 56.7484 27.9057 56.6505 28.0036C55.6721 28.9828 54.5958 30.0598 53.1282 30.0109C53.0303 30.0109 52.9814 29.9129 52.9814 29.815V29.7171C53.6174 29.1296 54.4001 28.5421 54.6937 27.7099C54.8894 27.0245 55.4764 26.5349 55.721 25.8984C55.7699 25.8005 55.6721 25.7516 55.5743 25.7026L55.4275 25.8005C54.6937 26.5349 54.1555 27.3672 53.6174 28.1505C53.0793 28.689 52.2965 29.0317 51.4648 28.8359C51.367 28.7869 51.367 28.6401 51.4159 28.5421C54.4491 26.6818 54.7915 23.3527 55.6232 20.3173C56.2102 18.31 56.6505 16.2538 58.216 14.6382C60.5643 12.0435 63.4996 10.5258 66.0924 8.27378C66.4838 7.93108 66.8752 7.58837 67.3644 7.58837C68.6363 7.49046 69.6148 7.98003 70.4954 8.71439ZM98.4296 30.3536C98.6742 30.6963 98.5764 31.2348 98.6742 31.6265C98.7231 31.9202 99.1145 32.165 98.9188 32.4587L97.8425 32.8014C97.6469 32.8014 97.7447 32.5566 97.6469 32.4587C97.549 31.8223 97.4023 31.3817 97.2066 30.7942C97.1576 30.4515 97.5001 30.2067 97.7447 30.0109C97.9893 29.9129 98.185 30.2067 98.4296 30.3536ZM95.9346 28.1505C96.326 28.4932 96.8641 28.738 97.1576 29.1786C97.2066 29.3744 97.0598 29.5702 96.962 29.7171C96.8152 29.864 96.6195 29.9619 96.3749 29.9619C96.1303 29.9619 95.9346 29.815 95.7878 29.6192C95.5432 29.2275 95.2008 28.8848 95.1029 28.4932C95.2497 28.2484 95.5921 27.8567 95.9346 28.1505ZM72.3544 27.7588C72.3055 28.2484 72.1587 28.689 71.963 29.1296C71.8162 29.4234 71.3759 29.3255 71.0824 29.2765C70.7889 29.1786 70.2997 29.1296 70.2507 28.689C70.2018 28.2974 70.3975 27.9057 70.5932 27.6119C71.0335 27.563 71.5716 27.6609 72.0119 27.563C72.2076 27.563 72.3544 27.6119 72.3544 27.7588Z" fill="#E21B4D"/>
</svg>
