<svg width="186" height="42" viewBox="0 0 186 42" fill="none" xmlns="http://www.w3.org/2000/svg">
<g clip-path="url(#clip0_110_381)">
<path d="M133.116 17.7227H125.239V33.1932C125.239 38.2358 130.621 42.5441 137.274 42.5441C143.927 42.5441 149.749 38.1868 149.749 33.1932V17.7227H141.873V31.6755C141.873 33.9765 139.916 35.8369 137.519 35.8369C135.073 35.8369 133.116 33.9765 133.116 31.6266V17.7227Z" fill="#E21B4D"/>
<path d="M8.16991 9.20397V41.32H0V2.59473H14.7254C21.1341 2.59473 26.3688 7.78421 26.3688 14.0997C26.3688 19.485 22.6018 23.9891 17.5139 25.1641L28.8638 41.32H19.1284L10.9584 28.6401V19.3871H12.8664C15.8995 19.3871 18.3456 17.1351 18.3456 14.3445C18.3456 11.5539 16.0463 9.20397 13.0132 9.20397H8.16991Z" fill="#E21B4D"/>
<path d="M83.362 41.3201V0.734375H75.6324V19.8767C73.5776 17.8695 70.9848 16.7434 68.0006 16.7434C61.6408 16.7434 56.4551 22.3735 56.4551 29.3744C56.4551 36.3264 61.6408 42.0055 68.0006 42.0055C71.0337 42.0055 73.8712 40.8305 75.6324 38.6764V41.3201H83.362ZM70.2021 35.3962C67.0711 35.3962 64.5271 32.6056 64.5271 29.1786C64.5271 25.7516 67.0711 22.961 70.2021 22.961C73.333 22.961 75.877 25.7516 75.877 29.1786C75.828 32.6056 73.2841 35.3962 70.2021 35.3962Z" fill="#E21B4D"/>
<path d="M115.847 20.2683C117.95 18.3101 119.271 15.6664 119.271 12.7779C119.271 10.1342 118.244 7.73525 116.483 5.82591C114.624 3.81866 111.395 2.59473 106.992 2.59473H93.832V41.32H110.857C117.363 41.2221 122.647 36.2774 122.647 30.2067C122.598 25.8005 121.032 22.6673 115.847 20.2683ZM109.291 34.6129H101.904V9.54668H107.09C109.34 9.54668 111.248 11.2602 111.248 13.5612C111.248 15.8622 109.34 17.7226 107.09 17.7226H104.35V24.7235H109.389C112.129 24.7235 114.183 26.9755 114.183 29.7171C114.086 32.4587 112.275 34.466 109.291 34.6129Z" fill="#E21B4D"/>
<path d="M35.7127 26.486C35.7127 23.8912 37.8163 21.7861 40.4092 21.7861C43.002 21.7861 45.1056 23.8912 45.1056 26.486H35.7127ZM52.7374 30.8922C52.7863 30.3536 52.8353 29.8151 52.8353 29.2766C52.9331 20.9048 47.4539 16.3518 40.4092 16.3518C33.3645 16.3518 27.6406 22.1288 27.6406 29.2766C27.6406 36.4243 33.3645 42.2013 40.4092 42.2013C45.7905 42.2013 49.9978 39.7534 52.1504 35.9348L45.8884 33.0463C45.1056 34.7598 43.2466 35.9837 41.0451 35.9837C38.1588 35.9837 35.7616 33.7806 35.7616 30.8922C35.9573 30.8922 52.7374 30.8922 52.7374 30.8922Z" fill="#E21B4D"/>
<path d="M161.099 0.734375H153.369V41.32H161.099V0.734375Z" fill="#E21B4D"/>
<path d="M174.259 0.734375H166.529V41.32H174.259V0.734375Z" fill="#E21B4D"/>
<path d="M182.331 0.489459C183.212 0.489459 183.946 0.783203 184.533 1.41965C185.12 2.00714 185.462 2.79046 185.462 3.62273C185.462 4.50396 185.169 5.23833 184.533 5.82581C183.946 6.46226 183.163 6.75601 182.331 6.75601C181.451 6.75601 180.717 6.46226 180.081 5.82581C179.494 5.23833 179.151 4.45501 179.151 3.62273C179.151 2.7415 179.445 2.00714 180.081 1.41965C180.717 0.832161 181.451 0.489459 182.331 0.489459ZM186 3.62273C186 2.64358 185.658 1.76235 184.924 1.02799C184.19 0.342587 183.359 -0.0490723 182.331 -0.0490723C181.304 -0.0490723 180.472 0.293629 179.738 1.02799C179.005 1.76235 178.662 2.59463 178.662 3.62273C178.662 4.65084 179.005 5.48311 179.738 6.21747C180.472 6.95183 181.304 7.29454 182.331 7.29454C183.359 7.29454 184.19 6.95183 184.924 6.21747C185.609 5.53207 186 4.65084 186 3.62273ZM183.31 2.83941C183.31 3.13316 183.163 3.37794 182.869 3.47586C182.723 3.52482 182.478 3.57377 182.184 3.57377H181.548V2.10505H182.136C182.527 2.10505 182.82 2.15401 183.016 2.25192C183.212 2.3988 183.31 2.54567 183.31 2.83941ZM180.864 1.61548V5.62999H181.548V4.06335H182.087C182.478 4.06335 182.723 4.11231 182.869 4.21022C183.114 4.35709 183.261 4.65084 183.261 5.14041V5.43416V5.53207V5.58103V5.62999H183.946L183.897 5.58103C183.897 5.53207 183.848 5.48311 183.848 5.3852C183.848 5.28728 183.848 5.18937 183.848 5.09145V4.79771C183.848 4.60188 183.75 4.40605 183.652 4.16126C183.505 3.96543 183.261 3.81856 182.967 3.7696C183.212 3.72065 183.408 3.67169 183.554 3.57377C183.799 3.4269 183.946 3.13316 183.946 2.79046C183.946 2.30088 183.75 1.95818 183.31 1.76235C183.065 1.66444 182.723 1.61548 182.184 1.61548H180.864Z" fill="#E21B4D"/>
</g>
<defs>
<clipPath id="clip0_110_381">
<rect width="186" height="42" fill="white"/>
</clipPath>
</defs>
</svg>
